<svg width="78" height="18" viewBox="0 0 78 18" fill="none" xmlns="http://www.w3.org/2000/svg">
<path d="M6.952 1.904C7.256 1.2 7.6 0.711999 7.984 0.439999C8.384 0.151999 8.96 0.0079999 9.712 0.0079999C10.432 0.0079999 10.992 0.151999 11.392 0.439999C11.808 0.711999 12.168 1.2 12.472 1.904L18.808 17H15.472L13.744 12.752H5.656L3.952 17H0.616L6.952 1.904ZM6.472 10.496H12.928L10.192 3.656C10.144 3.528 10.08 3.384 10 3.224C9.92 3.048 9.824 2.96 9.712 2.96C9.6 2.96 9.504 3.048 9.424 3.224C9.344 3.384 9.28 3.528 9.232 3.656L6.472 10.496ZM20.3501 14.48H29.6621C30.0461 14.48 30.3421 14.416 30.5501 14.288C30.7581 14.144 30.9101 13.976 31.0061 13.784C31.1181 13.592 31.1821 13.392 31.1981 13.184C31.2301 12.976 31.2461 12.8 31.2461 12.656C31.2461 12.496 31.2301 12.328 31.1981 12.152C31.1661 11.976 31.0941 11.808 30.9821 11.648C30.8701 11.472 30.7021 11.312 30.4781 11.168C30.2701 11.008 29.9821 10.872 29.6141 10.76L22.9901 8.672C21.8861 8.32 21.1341 7.784 20.7341 7.064C20.3341 6.344 20.1341 5.408 20.1341 4.256C20.1341 3.056 20.4381 2.08 21.0461 1.328C21.6701 0.575999 22.6461 0.199999 23.9741 0.199999H33.6461V2.72H24.8141C24.4141 2.72 24.0781 2.848 23.8061 3.104C23.5341 3.36 23.3981 3.792 23.3981 4.4C23.3981 4.592 23.4061 4.776 23.4221 4.952C23.4541 5.128 23.5181 5.304 23.6141 5.48C23.7261 5.64 23.8781 5.792 24.0701 5.936C24.2621 6.064 24.5261 6.184 24.8621 6.296L31.0061 8.24C31.6141 8.432 32.1341 8.648 32.5661 8.888C33.0141 9.128 33.3821 9.424 33.6701 9.776C33.9581 10.112 34.1661 10.52 34.2941 11C34.4381 11.464 34.5101 12.024 34.5101 12.68C34.5101 13.304 34.4381 13.88 34.2941 14.408C34.1661 14.936 33.9581 15.392 33.6701 15.776C33.3821 16.16 33.0061 16.464 32.5421 16.688C32.0941 16.896 31.5501 17 30.9101 17H20.3501V14.48ZM42.552 17V2.72H36V0.199999H52.296V2.72H45.72V17H42.552ZM54.7291 17V0.199999H57.8971V17H54.7291ZM77.8559 14.816C77.8559 15.664 77.6079 16.272 77.1119 16.64C76.6319 17.008 76.0479 17.192 75.3599 17.192C74.8479 17.192 74.3599 17.104 73.8959 16.928C73.4319 16.752 73.0159 16.368 72.6479 15.776L65.5679 4.592C65.4399 4.416 65.3519 4.304 65.3039 4.256C65.2559 4.208 65.2159 4.184 65.1839 4.184C65.1199 4.184 65.0479 4.224 64.9679 4.304C64.8879 4.368 64.8479 4.488 64.8479 4.664V17H61.7759V2.288C61.7759 1.568 61.9999 1.008 62.4479 0.607999C62.8959 0.208 63.5279 0.0079999 64.3439 0.0079999C65.0959 0.0079999 65.6719 0.136 66.0719 0.391999C66.4719 0.647999 66.7839 0.959999 67.0079 1.328L74.1359 12.584C74.1999 12.664 74.2479 12.752 74.2799 12.848C74.3279 12.944 74.4079 12.992 74.5199 12.992C74.6479 12.992 74.7199 12.944 74.7359 12.848C74.7679 12.736 74.7839 12.648 74.7839 12.584V0.199999H77.8559V14.816Z" fill="#495055"/>
</svg>
